<?xml version="1.0" encoding="utf-8"?>
<!-- Generator: Adobe Illustrator 27.4.0, SVG Export Plug-In . SVG Version: 6.00 Build 0)  -->
<svg version="1.1" id="Camada_1" xmlns="http://www.w3.org/2000/svg" xmlns:xlink="http://www.w3.org/1999/xlink" x="0px" y="0px"
	 viewBox="0 0 1080 1080" style="enable-background:new 0 0 1080 1080;" xml:space="preserve">
<style type="text/css">
	.st0{opacity:0.7;}
	.st1{fill:#FFFFFF;}
</style>
<g class="st0">
	<g>
		<path class="st1" d="M766.17,411.62c-94.86-98-240.67-90.85-319.54-90.85h-6.13c-3.58,0.05-7.1,0.05-10.68,0.11
			c-18.59,0.16-36.81,0.65-52.04,1.14c1.03,10.35,2.98,20.65,6.07,31.01c7.97-2.98,35.56-5.15,50.79-5.15c3.14,0,6.34,0,9.49,0.05
			c4.5,0,9,0.11,13.5,0.22c86.51,2.01,168.79,17.29,237.58,89.76c32.69,34.26,76.54,99.63,76.54,200.83
			c0,73.29-22.33,149.82-63.75,190.42c-47.05,47.05-115.57,74.1-189.66,74.1c-94.05,0-125.11-16.7-135.46-31.87
			c-6.4-8.73-7.97-40.6-8.78-60.55c-0.11-2.01-0.22-4.99-0.27-8.89c-0.11-3.14-0.22-6.88-0.27-11.11
			c-0.33-17.07-0.6-42.71-0.81-73.23c-0.11-18.86-0.16-39.62-0.22-61.41V539.11c0-36.36,0.21-72.73,0.53-109.09
			c0.18-20.05,0.32-40.11,0.13-60.16c-0.03-3.39,2.34-46.65-34.16-46.65c-3.96,0-54.15-2.44-90.03-2.44
			c-8.73,0-12.74,1.63-12.74,6.4c0,3.2,3.2,4.77,8.78,4.77c7.16,0,20.71,0.81,27.1,2.39c26.29,5.58,30.25,18.32,31.87,45.42
			c1.57,25.53,1.57,47.81,1.57,172.1v140.28c0,76.48,0,139.42-4.01,172.91c-3.14,23.09-7.16,40.6-23.09,43.8
			c-7.16,1.63-13.55,2.38-22.28,3.2c-6.4,0-7.97,2.39-7.97,4.77c0,4.77,3.96,6.4,12.74,6.4c11.93,0,30.25-1.63,46.18-1.63
			c16.75-0.76,30.3-0.76,31.87-0.76c4.01,0,31.11,2.39,66.18,4.77c34.26,2.38,76.48,4.77,110.74,4.77
			c135.46,0,207.17-55.78,241.43-91.61c44.61-47.05,86.08-124.35,86.08-224.73C843.47,519.22,806.01,453.09,766.17,411.62z"/>
	</g>
	<g>
		<path class="st1" d="M558.51,437.21l-23.63-18.59c-36.75-28.62-61.31-50.57-77.24-70.47c-7.53-9.43-13.17-18.38-17.13-27.37
			c-6.34-13.98-8.78-28.08-8.78-44.12c0-26.61,8.46-48.51,22.82-64.83c18.92-21.46,47.97-33.23,81.14-33.23
			c77.78,0,100.6,35.5,105.65,44.77c5.1,9.32,10.19,32.14,11,42.28c0.7,5.53,1.41,9.38,4.39,10.52c0.65,0.33,1.46,0.49,2.39,0.49
			c4.23,0,5.91-5.91,5.91-19.46c0-57.46,3.36-85.37,3.36-89.6c0-4.23-1.68-5.91-8.4-5.91c-6.78,0-13.55-0.87-29.6-4.23
			c-21.14-5.1-45.64-8.46-78.6-8.46c-60.38,0-108.19,19.51-138.49,52.69c-23.52,25.8-36.48,59.84-36.48,99.47
			c0,6.99,0.33,13.99,0.98,20.87c1.03,10.35,2.98,20.65,6.07,31.01c11.76,39.52,40.55,80.44,102.83,131.56l38.05,31.28
			c72.69,60.01,97.19,93.77,97.19,152.1c0,29.7-11.98,60.66-36.21,82.45c-19.89,18.1-48.03,29.98-84.67,29.98
			c-56.64,0-112.42-23.63-125.11-86.19c-2.55-11.87-2.55-23.69-2.55-31.28c0-3.04-0.16-5.26-0.87-6.72c-0.7-1.84-2.22-2.6-5.04-2.6
			c-3.2,0-4.99,2.44-5.96,7.75c-0.33,1.63-0.6,3.58-0.76,5.8c-0.87,13.5-4.23,47.32-4.23,89.6c0,22.82,0.81,26.18,12.63,32.09
			c1.46,0.7,2.93,1.41,4.39,2.01c33.55,15.39,70.85,20.81,108.9,20.81c45.64,0,91.28-10.14,127.65-35.5
			c6.5-4.61,12.41-9.49,17.83-14.64c43.31-40.71,53.99-94.86,53.99-125.65C681.94,568.22,658.25,515.86,558.51,437.21z"/>
	</g>
	<g>
		<path class="st1" d="M428.25,573.09c-2.02,1.3-48.76,30.1-54.94,88.2C347.98,576.26,426.65,575.17,428.25,573.09z"/>
	</g>
</g>
</svg>
