<svg width="24" height="25" viewBox="0 0 24 25" fill="none" xmlns="http://www.w3.org/2000/svg">
<path fill-rule="evenodd" clip-rule="evenodd" d="M3.89983 16.1639L5.29783 16.3779C6.32983 16.5359 7.06683 17.4599 6.99083 18.5009L6.88783 19.9119C6.85783 20.3229 7.08183 20.7099 7.45283 20.8889L8.48683 21.3869C8.85783 21.5659 9.30083 21.4989 9.60383 21.2199L10.6428 20.2599C11.4088 19.5519 12.5908 19.5519 13.3578 20.2599L14.3968 21.2199C14.6998 21.4999 15.1418 21.5659 15.5138 21.3869L16.5498 20.8879C16.9198 20.7099 17.1428 20.3239 17.1128 19.9139L17.0098 18.5009C16.9338 17.4599 17.6708 16.5359 18.7028 16.3779L20.1008 16.1639C20.5078 16.1019 20.8358 15.7969 20.9278 15.3949L21.1828 14.2769C21.2748 13.8749 21.1118 13.4579 20.7718 13.2259L19.6048 12.4269C18.7438 11.8369 18.4808 10.6849 19.0008 9.77987L19.7058 8.55387C19.9108 8.19687 19.8768 7.74987 19.6198 7.42787L18.9048 6.53087C18.6478 6.20887 18.2198 6.07587 17.8258 6.19687L16.4738 6.61087C15.4748 6.91687 14.4098 6.40387 14.0258 5.43287L13.5078 4.11987C13.3558 3.73587 12.9848 3.48387 12.5718 3.48487L11.4258 3.48787C11.0128 3.48887 10.6428 3.74287 10.4928 4.12787L9.98783 5.42587C9.60783 6.40287 8.53783 6.91987 7.53583 6.61187L6.12783 6.17987C5.73283 6.05787 5.30283 6.19187 5.04583 6.51587L4.33583 7.41387C4.07883 7.73887 4.04783 8.18687 4.25683 8.54387L4.97783 9.77287C5.50883 10.6789 5.24883 11.8419 4.38283 12.4349L3.22983 13.2249C2.88983 13.4579 2.72683 13.8749 2.81883 14.2759L3.07383 15.3939C3.16483 15.7969 3.49283 16.1019 3.89983 16.1639V16.1639Z" stroke="#D9D9D9" stroke-width="1.5" stroke-linecap="round" stroke-linejoin="round"/>
<path fill-rule="evenodd" clip-rule="evenodd" d="M3.89983 16.1639L5.29783 16.3779C6.32983 16.5359 7.06683 17.4599 6.99083 18.5009L6.88783 19.9119C6.85783 20.3229 7.08183 20.7099 7.45283 20.8889L8.48683 21.3869C8.85783 21.5659 9.30083 21.4989 9.60383 21.2199L10.6428 20.2599C11.4088 19.5519 12.5908 19.5519 13.3578 20.2599L14.3968 21.2199C14.6998 21.4999 15.1418 21.5659 15.5138 21.3869L16.5498 20.8879C16.9198 20.7099 17.1428 20.3239 17.1128 19.9139L17.0098 18.5009C16.9338 17.4599 17.6708 16.5359 18.7028 16.3779L20.1008 16.1639C20.5078 16.1019 20.8358 15.7969 20.9278 15.3949L21.1828 14.2769C21.2748 13.8749 21.1118 13.4579 20.7718 13.2259L19.6048 12.4269C18.7438 11.8369 18.4808 10.6849 19.0008 9.77987L19.7058 8.55387C19.9108 8.19687 19.8768 7.74987 19.6198 7.42787L18.9048 6.53087C18.6478 6.20887 18.2198 6.07587 17.8258 6.19687L16.4738 6.61087C15.4748 6.91687 14.4098 6.40387 14.0258 5.43287L13.5078 4.11987C13.3558 3.73587 12.9848 3.48387 12.5718 3.48487L11.4258 3.48787C11.0128 3.48887 10.6428 3.74287 10.4928 4.12787L9.98783 5.42587C9.60783 6.40287 8.53783 6.91987 7.53583 6.61187L6.12783 6.17987C5.73283 6.05787 5.30283 6.19187 5.04583 6.51587L4.33583 7.41387C4.07883 7.73887 4.04783 8.18687 4.25683 8.54387L4.97783 9.77287C5.50883 10.6789 5.24883 11.8419 4.38283 12.4349L3.22983 13.2249C2.88983 13.4579 2.72683 13.8749 2.81883 14.2759L3.07383 15.3939C3.16483 15.7969 3.49283 16.1019 3.89983 16.1639V16.1639Z" stroke="url(#paint0_linear_2401_35719)" stroke-width="1.5" stroke-linecap="round" stroke-linejoin="round"/>
<path d="M13.916 10.6006C14.974 11.6586 14.974 13.3746 13.916 14.4326C12.858 15.4906 11.142 15.4906 10.084 14.4326C9.02603 13.3746 9.02603 11.6586 10.084 10.6006C11.142 9.54263 12.858 9.54263 13.916 10.6006" stroke="#D9D9D9" stroke-width="1.5" stroke-linecap="round" stroke-linejoin="round"/>
<path d="M13.916 10.6006C14.974 11.6586 14.974 13.3746 13.916 14.4326C12.858 15.4906 11.142 15.4906 10.084 14.4326C9.02603 13.3746 9.02603 11.6586 10.084 10.6006C11.142 9.54263 12.858 9.54263 13.916 10.6006" stroke="url(#paint1_linear_2401_35719)" stroke-width="1.5" stroke-linecap="round" stroke-linejoin="round"/>
<defs>
<linearGradient id="paint0_linear_2401_35719" x1="2.79346" y1="3.48486" x2="22.442" y2="4.9509" gradientUnits="userSpaceOnUse">
<stop stop-color="#00C1EB"/>
<stop offset="1" stop-color="#0094FF"/>
</linearGradient>
<linearGradient id="paint1_linear_2401_35719" x1="9.29053" y1="9.80713" x2="15.074" y2="10.229" gradientUnits="userSpaceOnUse">
<stop stop-color="#00C1EB"/>
<stop offset="1" stop-color="#0094FF"/>
</linearGradient>
</defs>
</svg>
