<svg width="24" height="25" viewBox="0 0 24 25" fill="none" xmlns="http://www.w3.org/2000/svg">
<path d="M2.99658 8.51559H21.0041" stroke="#D9D9D9" stroke-width="1.5" stroke-linecap="round" stroke-linejoin="round"/>
<path d="M2.99658 8.51559H21.0041" stroke="url(#paint0_linear_2401_35727)" stroke-width="1.5" stroke-linecap="round" stroke-linejoin="round"/>
<path d="M10.8654 6.00961L10.8604 6.01461L10.8654 6.01961L10.8704 6.01461L10.8654 6.00961" stroke="#D9D9D9" stroke-width="1.5" stroke-linecap="round" stroke-linejoin="round"/>
<path d="M10.8654 6.00961L10.8604 6.01461L10.8654 6.01961L10.8704 6.01461L10.8654 6.00961" stroke="url(#paint1_linear_2401_35727)" stroke-width="1.5" stroke-linecap="round" stroke-linejoin="round"/>
<path fill-rule="evenodd" clip-rule="evenodd" d="M20.6239 17.4587L16.1554 15.9692C15.9557 15.9026 15.7355 15.9546 15.5866 16.1035C15.4378 16.2523 15.3858 16.4725 15.4524 16.6722L16.9419 21.1407C17.0105 21.3466 17.1928 21.4937 17.4085 21.5174C17.6243 21.5411 17.8341 21.437 17.9458 21.2509L18.8484 19.7465C18.9423 19.59 19.0732 19.4591 19.2297 19.3652L20.7341 18.4625C20.9202 18.3509 21.0243 18.1411 21.0006 17.9253C20.9769 17.7096 20.8298 17.5274 20.6239 17.4587Z" stroke="#D9D9D9" stroke-width="1.5" stroke-linecap="round" stroke-linejoin="round"/>
<path fill-rule="evenodd" clip-rule="evenodd" d="M20.6239 17.4587L16.1554 15.9692C15.9557 15.9026 15.7355 15.9546 15.5866 16.1035C15.4378 16.2523 15.3858 16.4725 15.4524 16.6722L16.9419 21.1407C17.0105 21.3466 17.1928 21.4937 17.4085 21.5174C17.6243 21.5411 17.8341 21.437 17.9458 21.2509L18.8484 19.7465C18.9423 19.59 19.0732 19.4591 19.2297 19.3652L20.7341 18.4625C20.9202 18.3509 21.0243 18.1411 21.0006 17.9253C20.9769 17.7096 20.8298 17.5274 20.6239 17.4587Z" stroke="url(#paint2_linear_2401_35727)" stroke-width="1.5" stroke-linecap="round" stroke-linejoin="round"/>
<path d="M20.7188 21.2357L19.0156 19.5325" stroke="#D9D9D9" stroke-width="1.5" stroke-linecap="round" stroke-linejoin="round"/>
<path d="M20.7188 21.2357L19.0156 19.5325" stroke="url(#paint3_linear_2401_35727)" stroke-width="1.5" stroke-linecap="round" stroke-linejoin="round"/>
<path d="M19.0511 12.8984L18.5099 13.4546L19.0511 12.8984" stroke="#D9D9D9" stroke-width="1.5" stroke-linecap="round" stroke-linejoin="round"/>
<path d="M19.0511 12.8984L18.5099 13.4546L19.0511 12.8984" stroke="url(#paint4_linear_2401_35727)" stroke-width="1.5" stroke-linecap="round" stroke-linejoin="round"/>
<path d="M15.7159 11.5168L15.7259 12.2927" stroke="#D9D9D9" stroke-width="1.5" stroke-linecap="round" stroke-linejoin="round"/>
<path d="M15.7159 11.5168L15.7259 12.2927" stroke="url(#paint5_linear_2401_35727)" stroke-width="1.5" stroke-linecap="round" stroke-linejoin="round"/>
<path d="M12.3813 12.8983L12.9375 13.4385L12.3813 12.8983" stroke="#D9D9D9" stroke-width="1.5" stroke-linecap="round" stroke-linejoin="round"/>
<path d="M12.3813 12.8983L12.9375 13.4385L12.3813 12.8983" stroke="url(#paint6_linear_2401_35727)" stroke-width="1.5" stroke-linecap="round" stroke-linejoin="round"/>
<path d="M10.9997 16.2328L11.7761 16.2218L10.9997 16.2328" stroke="#D9D9D9" stroke-width="1.5" stroke-linecap="round" stroke-linejoin="round"/>
<path d="M10.9997 16.2328L11.7761 16.2218L10.9997 16.2328" stroke="url(#paint7_linear_2401_35727)" stroke-width="1.5" stroke-linecap="round" stroke-linejoin="round"/>
<path d="M12.3813 19.5682L12.9375 19.027L12.3813 19.5682" stroke="#D9D9D9" stroke-width="1.5" stroke-linecap="round" stroke-linejoin="round"/>
<path d="M12.3813 19.5682L12.9375 19.027L12.3813 19.5682" stroke="url(#paint8_linear_2401_35727)" stroke-width="1.5" stroke-linecap="round" stroke-linejoin="round"/>
<path d="M8.3254 6.00961L8.3204 6.01461L8.3254 6.01961L8.33041 6.01461L8.3254 6.00961" stroke="#D9D9D9" stroke-width="1.5" stroke-linecap="round" stroke-linejoin="round"/>
<path d="M8.3254 6.00961L8.3204 6.01461L8.3254 6.01961L8.33041 6.01461L8.3254 6.00961" stroke="url(#paint9_linear_2401_35727)" stroke-width="1.5" stroke-linecap="round" stroke-linejoin="round"/>
<path d="M5.77658 6.00448L5.77157 6.00949L5.77658 6.01449L5.78158 6.00949L5.77658 6.00448" stroke="#D9D9D9" stroke-width="1.5" stroke-linecap="round" stroke-linejoin="round"/>
<path d="M5.77658 6.00448L5.77157 6.00949L5.77658 6.01449L5.78158 6.00949L5.77658 6.00448" stroke="url(#paint10_linear_2401_35727)" stroke-width="1.5" stroke-linecap="round" stroke-linejoin="round"/>
<path d="M9.9995 21.5209H4.99742C4.46672 21.5209 3.95771 21.3103 3.58245 20.9351C3.20719 20.5598 2.99658 20.0508 2.99658 19.5201V5.51426C2.99658 4.98356 3.20719 4.47456 3.58245 4.0993C3.95771 3.72404 4.46672 3.51343 4.99742 3.51343H19.0032C19.5339 3.51343 20.043 3.72404 20.4182 4.0993C20.7935 4.47456 21.0041 4.98356 21.0041 5.51426V10.5163" stroke="#D9D9D9" stroke-width="1.5" stroke-linecap="round" stroke-linejoin="round"/>
<path d="M9.9995 21.5209H4.99742C4.46672 21.5209 3.95771 21.3103 3.58245 20.9351C3.20719 20.5598 2.99658 20.0508 2.99658 19.5201V5.51426C2.99658 4.98356 3.20719 4.47456 3.58245 4.0993C3.95771 3.72404 4.46672 3.51343 4.99742 3.51343H19.0032C19.5339 3.51343 20.043 3.72404 20.4182 4.0993C20.7935 4.47456 21.0041 4.98356 21.0041 5.51426V10.5163" stroke="url(#paint11_linear_2401_35727)" stroke-width="1.5" stroke-linecap="round" stroke-linejoin="round"/>
<defs>
<linearGradient id="paint0_linear_2401_35727" x1="2.99658" y1="8.01538" x2="10.0901" y2="17.3286" gradientUnits="userSpaceOnUse">
<stop stop-color="#00C1EB"/>
<stop offset="1" stop-color="#0094FF"/>
</linearGradient>
<linearGradient id="paint1_linear_2401_35727" x1="10.3652" y1="5.5144" x2="11.4329" y2="5.59228" gradientUnits="userSpaceOnUse">
<stop stop-color="#00C1EB"/>
<stop offset="1" stop-color="#0094FF"/>
</linearGradient>
<linearGradient id="paint2_linear_2401_35727" x1="15.4238" y1="15.9407" x2="21.3793" y2="16.3751" gradientUnits="userSpaceOnUse">
<stop stop-color="#00C1EB"/>
<stop offset="1" stop-color="#0094FF"/>
</linearGradient>
<linearGradient id="paint3_linear_2401_35727" x1="19.0156" y1="19.5325" x2="20.8334" y2="19.6651" gradientUnits="userSpaceOnUse">
<stop stop-color="#00C1EB"/>
<stop offset="1" stop-color="#0094FF"/>
</linearGradient>
<linearGradient id="paint4_linear_2401_35727" x1="18.2803" y1="12.6763" x2="19.348" y2="12.7541" gradientUnits="userSpaceOnUse">
<stop stop-color="#00C1EB"/>
<stop offset="1" stop-color="#0094FF"/>
</linearGradient>
<linearGradient id="paint5_linear_2401_35727" x1="15.2207" y1="11.4045" x2="16.2884" y2="11.4824" gradientUnits="userSpaceOnUse">
<stop stop-color="#00C1EB"/>
<stop offset="1" stop-color="#0094FF"/>
</linearGradient>
<linearGradient id="paint6_linear_2401_35727" x1="12.1592" y1="12.6682" x2="13.2269" y2="12.7461" gradientUnits="userSpaceOnUse">
<stop stop-color="#00C1EB"/>
<stop offset="1" stop-color="#0094FF"/>
</linearGradient>
<linearGradient id="paint7_linear_2401_35727" x1="10.8877" y1="15.7271" x2="11.9554" y2="15.8049" gradientUnits="userSpaceOnUse">
<stop stop-color="#00C1EB"/>
<stop offset="1" stop-color="#0094FF"/>
</linearGradient>
<linearGradient id="paint8_linear_2401_35727" x1="12.1592" y1="18.7974" x2="13.2269" y2="18.8752" gradientUnits="userSpaceOnUse">
<stop stop-color="#00C1EB"/>
<stop offset="1" stop-color="#0094FF"/>
</linearGradient>
<linearGradient id="paint9_linear_2401_35727" x1="7.8252" y1="5.5144" x2="8.8929" y2="5.59228" gradientUnits="userSpaceOnUse">
<stop stop-color="#00C1EB"/>
<stop offset="1" stop-color="#0094FF"/>
</linearGradient>
<linearGradient id="paint10_linear_2401_35727" x1="5.27637" y1="5.50928" x2="6.34407" y2="5.58716" gradientUnits="userSpaceOnUse">
<stop stop-color="#00C1EB"/>
<stop offset="1" stop-color="#0094FF"/>
</linearGradient>
<linearGradient id="paint11_linear_2401_35727" x1="2.99658" y1="3.51343" x2="22.2153" y2="4.91523" gradientUnits="userSpaceOnUse">
<stop stop-color="#00C1EB"/>
<stop offset="1" stop-color="#0094FF"/>
</linearGradient>
</defs>
</svg>
