<!DOCTYPE svg PUBLIC "-//W3C//DTD SVG 1.1//EN" "http://www.w3.org/Graphics/SVG/1.1/DTD/svg11.dtd">
<!-- Uploaded to: SVG Repo, www.svgrepo.com, Transformed by: SVG Repo Mixer Tools -->
<svg fill="#ffffff" width="100px" height="100px" viewBox="-9.92 -9.92 51.84 51.84" xmlns="http://www.w3.org/2000/svg" stroke="#ffffff" stroke-width="0.00032">
<g id="SVGRepo_bgCarrier" stroke-width="0"/>
<g id="SVGRepo_tracerCarrier" stroke-linecap="round" stroke-linejoin="round"/>
<g id="SVGRepo_iconCarrier"> <g data-name="39. Mind" id="_39._Mind"> <path d="M31.87,12.07a14.1,14.1,0,0,0-12-12A14,14,0,0,0,4.08,12.61l-4,7.94a1,1,0,0,0,.34,1.28L3,23.54V31a1,1,0,0,0,1,1H25a1,1,0,0,0,1-1,13.66,13.66,0,0,1,3.05-8.38A13.93,13.93,0,0,0,31.87,12.07Zm-4.4,9.29A15.79,15.79,0,0,0,24,30h-7.4a8.76,8.76,0,0,0,1.56-1.6l.6-.8a1,1,0,1,0-1.6-1.2l-.6.8A7,7,0,0,1,11,30H5V23a1,1,0,0,0-.45-.83L2.29,20.66l3.42-6.85A1,1,0,0,0,6,13.14a12,12,0,1,1,21.43,8.22Z"/> <path d="M18,4A10,10,0,1,0,28,14,10,10,0,0,0,18,4Zm0,18a8,8,0,1,1,8-8A8,8,0,0,1,18,22Z"/> <path d="M18,11h2a1,1,0,0,0,0-2H19a1,1,0,0,0-2,0v.18A3,3,0,0,0,18,15a1,1,0,0,1,0,2H16a1,1,0,0,0,0,2h1a1,1,0,0,0,2,0v-.18A3,3,0,0,0,18,13a1,1,0,0,1,0-2Z"/> </g> </g>
</svg>