<svg width="24" height="24" viewBox="0 0 24 24" fill="none" xmlns="http://www.w3.org/2000/svg">
<path d="M18.4409 14.8025V20.0001" stroke="#D9D9D9" stroke-width="1.36931" stroke-linecap="round" stroke-linejoin="round"/>
<path d="M18.4409 14.8025V20.0001" stroke="url(#paint0_linear_2401_35867)" stroke-width="1.36931" stroke-linecap="round" stroke-linejoin="round"/>
<path d="M18.4409 14.8025L16.4409 16.4692" stroke="#D9D9D9" stroke-width="1.36931" stroke-linecap="round" stroke-linejoin="round"/>
<path d="M18.4409 14.8025L16.4409 16.4692" stroke="url(#paint1_linear_2401_35867)" stroke-width="1.36931" stroke-linecap="round" stroke-linejoin="round"/>
<path d="M18.4409 14.8025L20.4409 16.4692" stroke="#D9D9D9" stroke-width="1.36931" stroke-linecap="round" stroke-linejoin="round"/>
<path d="M18.4409 14.8025L20.4409 16.4692" stroke="url(#paint2_linear_2401_35867)" stroke-width="1.36931" stroke-linecap="round" stroke-linejoin="round"/>
<path d="M2 20H12" stroke="#D9D9D9" stroke-width="1.5" stroke-linecap="round" stroke-linejoin="round"/>
<path d="M2 20H12" stroke="url(#paint3_linear_2401_35867)" stroke-width="1.5" stroke-linecap="round" stroke-linejoin="round"/>
<path fill-rule="evenodd" clip-rule="evenodd" d="M4.67149 14.705L2 12.05L3.57363 11.2681C3.85914 11.1263 4.19455 11.1263 4.48006 11.2681L6.05369 12.05L9.289 10.059L5.0403 6.0304L7.88553 5L13.1476 8.02145L17.7092 5.431C18.3089 5.08928 19.0336 5.04689 19.6691 5.31638C20.3045 5.58586 20.7778 6.13636 20.949 6.805V6.805C21.1303 7.52882 20.8148 8.28577 20.1731 8.66659L11.4508 13.8676C11.2325 13.9977 10.9918 14.0857 10.7412 14.1272L5.55467 14.9863C5.23218 15.0399 4.90359 14.9352 4.67149 14.705Z" stroke="#D9D9D9" stroke-width="1.5" stroke-linecap="round" stroke-linejoin="round"/>
<path fill-rule="evenodd" clip-rule="evenodd" d="M4.67149 14.705L2 12.05L3.57363 11.2681C3.85914 11.1263 4.19455 11.1263 4.48006 11.2681L6.05369 12.05L9.289 10.059L5.0403 6.0304L7.88553 5L13.1476 8.02145L17.7092 5.431C18.3089 5.08928 19.0336 5.04689 19.6691 5.31638C20.3045 5.58586 20.7778 6.13636 20.949 6.805V6.805C21.1303 7.52882 20.8148 8.28577 20.1731 8.66659L11.4508 13.8676C11.2325 13.9977 10.9918 14.0857 10.7412 14.1272L5.55467 14.9863C5.23218 15.0399 4.90359 14.9352 4.67149 14.705Z" stroke="url(#paint4_linear_2401_35867)" stroke-width="1.5" stroke-linecap="round" stroke-linejoin="round"/>
<defs>
<linearGradient id="paint0_linear_2401_35867" x1="17.9409" y1="14.8025" x2="19.0136" y2="14.8175" gradientUnits="userSpaceOnUse">
<stop stop-color="#00C1EB"/>
<stop offset="1" stop-color="#0094FF"/>
</linearGradient>
<linearGradient id="paint1_linear_2401_35867" x1="16.4409" y1="14.8025" x2="18.5705" y2="14.9889" gradientUnits="userSpaceOnUse">
<stop stop-color="#00C1EB"/>
<stop offset="1" stop-color="#0094FF"/>
</linearGradient>
<linearGradient id="paint2_linear_2401_35867" x1="18.4409" y1="14.8025" x2="20.5705" y2="14.9889" gradientUnits="userSpaceOnUse">
<stop stop-color="#00C1EB"/>
<stop offset="1" stop-color="#0094FF"/>
</linearGradient>
<linearGradient id="paint3_linear_2401_35867" x1="2" y1="19.5" x2="9.00345" y2="24.6083" gradientUnits="userSpaceOnUse">
<stop stop-color="#00C1EB"/>
<stop offset="1" stop-color="#0094FF"/>
</linearGradient>
<linearGradient id="paint4_linear_2401_35867" x1="2" y1="5" x2="22.0014" y2="7.77183" gradientUnits="userSpaceOnUse">
<stop stop-color="#00C1EB"/>
<stop offset="1" stop-color="#0094FF"/>
</linearGradient>
</defs>
</svg>
