<svg width="45" height="45" viewBox="0 0 45 45" fill="none" xmlns="http://www.w3.org/2000/svg">
<circle cx="22.5" cy="22.5" r="22.5" fill="#1AD03F"/>
<path d="M9.75 35.25L11.551 28.7018C10.4397 26.7851 9.85569 24.6122 9.85676 22.3842C9.85996 15.4184 15.5555 9.75 22.5534 9.75C25.9493 9.75106 29.1371 11.0675 31.5349 13.456C33.9315 15.8445 35.2511 19.0193 35.25 22.3959C35.2468 29.3627 29.5513 35.0311 22.5534 35.0311C20.4289 35.0301 18.3354 34.4999 16.481 33.4926L9.75 35.25ZM16.7928 31.2051C18.582 32.2623 20.2901 32.8955 22.5491 32.8966C28.3652 32.8966 33.1031 28.1854 33.1063 22.3937C33.1085 16.5904 28.393 11.8856 22.5576 11.8835C16.7373 11.8835 12.0026 16.5946 12.0004 22.3853C11.9994 24.7493 12.6954 26.5194 13.8644 28.3714L12.7979 32.2474L16.7928 31.2051ZM28.9492 25.3996C28.8702 25.2678 28.6588 25.1892 28.3407 25.0309C28.0236 24.8726 26.4639 24.1086 26.1724 24.0034C25.8821 23.8982 25.6707 23.8451 25.4582 24.1618C25.2469 24.4773 24.6383 25.1892 24.4537 25.3996C24.269 25.6099 24.0832 25.6365 23.7661 25.4782C23.4491 25.3199 22.4263 24.9873 21.2146 23.911C20.272 23.0738 19.6346 22.0399 19.4499 21.7233C19.2653 21.4078 19.4307 21.2367 19.5887 21.0794C19.7318 20.9381 19.9058 20.7108 20.0649 20.5259C20.2261 20.3431 20.2784 20.2114 20.3851 19.9999C20.4908 19.7896 20.4385 19.6047 20.3585 19.4464C20.2784 19.2891 19.6442 17.7347 19.3806 17.1025C19.1222 16.4873 18.8607 16.5702 18.6664 16.5606L18.0578 16.55C17.8465 16.55 17.5027 16.6286 17.2123 16.9452C16.9219 17.2619 16.102 18.0248 16.102 19.5792C16.102 21.1336 17.239 22.6349 17.397 22.8453C17.5561 23.0557 19.6336 26.2453 22.816 27.6128C23.5729 27.9379 24.1643 28.1323 24.6245 28.2779C25.3846 28.518 26.0764 28.484 26.623 28.4032C27.2325 28.3129 28.4997 27.6393 28.7645 26.9019C29.0293 26.1635 29.0293 25.5313 28.9492 25.3996Z" fill="white"/>
</svg>
